<!-- assets/icons/github-icon.svg -->
<svg xmlns="http://www.w3.org/2000/svg" viewBox="0 0 24 24" width="24" height="24" fill="#000000">
  <path d="M12 .5C5.65.5.5 5.65.5 12a11.5 11.5 0 0 0 7.86 10.94c.58.11.79-.25.79-.56v-2.05c-3.2.7-3.87-1.55-3.87-1.55-.53-1.34-1.29-1.7-1.29-1.7-1.05-.72.08-.71.08-.71 1.17.08 1.78 1.2 1.78 1.2 1.03 1.77 2.7 1.26 3.35.96.1-.75.4-1.26.72-1.55-2.55-.29-5.23-1.28-5.23-5.72 0-1.26.45-2.3 1.2-3.1-.12-.29-.52-1.45.11-3.03 0 0 .98-.31 3.2 1.2a11.1 11.1 0 0 1 5.83 0c2.22-1.51 3.2-1.2 3.2-1.2.63 1.58.23 2.74.11 3.03.75.8 1.2 1.84 1.2 3.1 0 4.45-2.68 5.42-5.24 5.7.41.35.77 1.03.77 2.08v3.09c0 .31.21.67.8.56A11.5 11.5 0 0 0 23.5 12c0-6.35-5.15-11.5-11.5-11.5z"></path>
</svg>
